<?xml version="1.0" encoding="UTF-8"?>
<svg id="Layer_1" data-name="Layer 1" xmlns="http://www.w3.org/2000/svg" viewBox="0 0 512 512">
  <path d="M217.55,123.75c-4.66,4.52-7.41-2.33-8.19-2.46-.88-.15-14.98,3.78-17.32,4.46-34.09,9.94-74.48,32.41-90.41,65.59-5.49,11.44-7.26,24.55-12.06,35.94-9.04,21.43-32.5,28.57-47.75,44.25-.44,2.41,1.11,1.2,2.51,1.45,5.06.91,13.23,1.08,17.54,2.47,13.32,4.33-11.93,25.1-13.05,30.94,5.52,19.13,16.09,37.18,33.69,47.42,30.05,17.49,66.33,2.43,86.48,38.52,16.87,30.21,7.39,66.84.16,98.43-1.23,2.76-5.03,2.33-7.18,1.09-1.74-2.74,5.71-31.78,6.56-37.64,4.82-32.86.76-71.25-37.51-79.91-30.68-6.95-52.41-3.35-74.03-31.97-8.5-11.25-24.02-49.27-25.06-62.96-1.56-20.64,32.42-30.91,44.3-45.46,8-9.79,10.2-26.34,14.82-38.18,12.66-32.49,40.35-53.73,71.34-67.69.78-1.06.35-2.13.23-3.26-1.93-18.14-15.25-42.65-12.71-61.19,2.91-21.22,30.24-1.31,39.23,4.6,11.22,7.37,21.79,15.97,32.67,23.81,2.51-1.97,10.19-53.9,12.98-62.53,14.27-44.18,51.67-.94,67.01,18.06,20.61,25.53,38.95,58.59,50.77,89.23,3.78,9.79,6.5,24.01,10.52,32.48,4,8.42,13.16,18.04,18.11,27.89,35.91,71.55,1.4,151.19,56.11,215.89,4.1,4.85,21.82,17.49,9.42,20.54-27.99-22.23-44.46-57.15-49.77-92.19-8.11-53.49,1.33-98.89-27.96-149.04-3.43-5.86-11.07-13.78-13.39-18.61-3.62-7.53-6.56-22.74-10.04-31.96-13.41-35.53-47.85-97.24-79.84-118.16-16.25-10.63-20.27-1.75-24.42,13.4-7.2,26.26-7.07,54.9-20,80-.61,1.18-3.28,6.3-3.74,6.75ZM214.57,111.78c.68-.68,4.86-10.86,3.33-12.31-15.25-9.84-29.8-23.79-45.79-32.27-4-2.12-9.37-6.08-13.87-3.25-4.18,5.96,11.36,50.62,12.58,60.06,6.63-2.1,13.27-4.65,19.99-6.5,3.51-.97,22.9-4.87,23.77-5.73ZM55.8,282.02l-14.99-1,4.01,14.99c.67.51,6.23-6.58,6.95-7.54s4.83-5.77,4.03-6.46Z"/>
  <path d="M255.51,57.22c6.7-1.53,10.34.36,15.3,4.27,16.33,12.87,32.34,46.76,38.48,66.52,2.29,7.36,8.91,30.92,8.2,37.38-.53,4.91-7.39,4.82-8.5.92-3.49-30.01-16.26-67.69-36.23-90.77-7.75-8.96-14.18-17.31-17.67-.73-4.23,20.04-1.44,48.72-8.56,67.44-.72,1.91-1.37,3.74-3.44,4.63l-4.81-1.87c-1.56-3.14,1.55-9.07,2.22-12.79,2.61-14.64,2.75-29.02,4.31-43.69.77-7.25,2.4-29.4,10.7-31.29Z"/>
  <path d="M193.54,335.77l-3.44.5c-18.61-11.25-38.67-19.76-60.09-23.97-3.5-.69-18.66-1.7-19.78-3.21l-.34-3.48c1.1-3.33,14.02-.9,17.26-.44,19.24,2.71,45.26,11.92,61.58,22.42,2.6,1.67,8.25,4.65,4.82,8.18Z"/>
  <path d="M194.69,293.9c-2.11,1.26-22.94-4.12-27.53-4.75-14.53-1.99-29.24-2.14-43.84-1.13-3.56.25-11.78,3.09-14.28.74-1.59-1.5-.71-4.76,1.47-5.56,2.3-.85,12.77-1.98,15.81-2.18,16.76-1.1,36.29-.14,52.69,3.29,5.01,1.05,19.05,2.56,15.68,9.6Z"/>
  <path d="M169.67,226.14c2.83,4.48-5.28,9.15-8.59,10.64-11.19,5.05-26.75,5.1-36.29-3.27-3.11-2.72-6.94-6.28-3.03-10.04,4.19-4.03,7.85,4.2,12.65,6.43,6.83,3.17,14.8,2.61,21.68-.1,2.68-1.05,11-7.72,13.57-3.66Z"/>
  <path d="M154.48,348.31c2.78,3.24-.39,6.57-3.97,5.56-1-.28-7.02-5.8-8.98-7.09-4.04-2.64-8.84-5.67-13.06-7.94-3.95-2.13-19.17-7.92-20.69-9.31-1.98-1.82-.8-3.77,1.04-5.06,2.45-1.16,13.54,3.92,16.65,5.37,6.77,3.15,24.51,13.24,29,18.48Z"/>
  <path d="M337.53,394.16c3.89-1.06,7.89,3.5,5.33,7.41-5.21,7.99-13.97-5.06-5.33-7.41Z"/>
  <path d="M319.56,433.76c-3.76,3.76-11.81-1.48-7.2-6.71,4.98-5.65,11.26,2.65,7.2,6.71Z"/>
  <path d="M267.51,335.14c6.53-1.86,8.77,9.24,1.74,9.92-5.89.57-6.98-8.43-1.74-9.92Z"/>
  <path d="M276.56,296.76c-3.76,3.76-11.81-1.48-7.2-6.71,4.98-5.65,11.26,2.65,7.2,6.71Z"/>
  <path d="M279.47,398.17c8.71-3.07,10.05,10.57.85,8.86-4.25-.79-4.33-7.64-.85-8.86Z"/>
  <path d="M236.54,301.18c6.51-.93,7.53,8.79,1.53,9.65-6.51.93-7.53-8.79-1.53-9.65Z"/>
  <path d="M305.55,373.26c2.53,2.55,1.28,8.85-3.24,8.64-9.54-.46-2.68-14.61,3.24-8.64Z"/>
  <path d="M341.51,357.18c7.54-2.22,9.29,9.31.79,8.93-5.54-.25-4.28-7.9-.79-8.93Z"/>
  <path d="M243.51,266.18c7.54-2.22,9.29,9.31.79,8.93-5.54-.25-4.28-7.9-.79-8.93Z"/>
  <path d="M311.56,331.26c6.57,6.57-9.66,13.48-7.75,2.3.65-3.82,5.37-4.67,7.75-2.3Z"/>
  <path d="M264.51,431.18c7.95-2.35,8.77,9.96.85,8.86-4.64-.65-4.86-7.67-.85-8.86Z"/>
</svg>